<svg xmlns="http://www.w3.org/2000/svg" viewBox="0 0 900 560" font-family="'Aleo Sans', Aleo, Inter, ui-sans-serif, system-ui, -apple-system, sans-serif">
  <style>
    .heading { fill: #121212; font-size: 20px; font-weight: 600; }
    .round-label { fill: #121212; font-size: 12px; font-weight: 600; text-transform: uppercase; letter-spacing: 0.5px; opacity: 0.7; }
    .record-text { fill: #121212; font-size: 11px; font-weight: 500; }
    .joinbox-text { fill: #121212; font-size: 16px; font-weight: 600; }
    .badge-text { fill: #121212; font-size: 14px; font-weight: 600; }
    .divider { stroke: #121212; stroke-width: 1; stroke-dasharray: 4 4; opacity: 0.25; }
    .seq-record { fill: #EEFFA8; }
    .batch-record { fill: #FFA978; }
    .seq-badge { fill: #EEFFA8; stroke: #121212; stroke-width: 1.5; }
    .batch-badge { fill: #FFA978; stroke: #121212; stroke-width: 1.5; }
    .arrow-seq { stroke: #121212; fill: none; stroke-width: 1.2; opacity: 0.55; }
    .arrow-batch { stroke: #121212; fill: none; stroke-width: 1.2; opacity: 0.55; }
    .arrowhead { fill: #121212; opacity: 0.85; }
    @media (prefers-color-scheme: dark) {
      .heading { fill: #F5F5F5; }
      .round-label { fill: #F5F5F5; opacity: 0.7; }
      .divider { stroke: #E3E3E3; opacity: 0.3; }
      .arrow-seq, .arrow-batch { stroke: #E3E3E3; opacity: 0.6; }
      .arrowhead { fill: #E3E3E3; }
    }
  </style>

  <text x="218" y="30" text-anchor="middle" class="heading">Pairwise</text>
  <text x="693" y="30" text-anchor="middle" class="heading">Batch</text>

  <line x1="456" y1="20" x2="456" y2="540" class="divider"/>

  <!-- =================== LEFT: SEQUENTIAL =================== -->
  <g transform="translate(-25,-25)">
  <text x="40" y="80" class="round-label">Inputs</text>
  <g>
    <rect x="40"  y="90" width="42" height="26" rx="3" class="seq-record"/>
    <text x="61" y="107" text-anchor="middle" class="record-text">r1</text>
    <rect x="92"  y="90" width="42" height="26" rx="3" class="seq-record"/>
    <text x="113" y="107" text-anchor="middle" class="record-text">r2</text>
    <rect x="144" y="90" width="42" height="26" rx="3" class="seq-record"/>
    <text x="165" y="107" text-anchor="middle" class="record-text">r3</text>
    <rect x="196" y="90" width="42" height="26" rx="3" class="seq-record"/>
    <text x="217" y="107" text-anchor="middle" class="record-text">r4</text>
    <rect x="248" y="90" width="42" height="26" rx="3" class="seq-record"/>
    <text x="269" y="107" text-anchor="middle" class="record-text">r5</text>
    <rect x="300" y="90" width="42" height="26" rx="3" class="seq-record"/>
    <text x="321" y="107" text-anchor="middle" class="record-text">r6</text>
    <rect x="352" y="90" width="42" height="26" rx="3" class="seq-record"/>
    <text x="373" y="107" text-anchor="middle" class="record-text">r7</text>
    <rect x="404" y="90" width="42" height="26" rx="3" class="seq-record"/>
    <text x="425" y="107" text-anchor="middle" class="record-text">r8</text>
  </g>

  <path d="M 61 116 Q 61 140 87 165" class="arrow-seq"/>
  <path d="M 113 116 Q 113 140 87 165" class="arrow-seq"/>
  <path d="M 165 116 Q 165 140 191 165" class="arrow-seq"/>
  <path d="M 217 116 Q 217 140 191 165" class="arrow-seq"/>
  <path d="M 269 116 Q 269 140 295 165" class="arrow-seq"/>
  <path d="M 321 116 Q 321 140 295 165" class="arrow-seq"/>
  <path d="M 373 116 Q 373 140 399 165" class="arrow-seq"/>
  <path d="M 425 116 Q 425 140 399 165" class="arrow-seq"/>

  <text x="40" y="160" class="round-label">Round 1</text>
  <rect x="60"  y="165" width="54" height="26" rx="3" class="seq-record"/>
  <text x="87"  y="182" text-anchor="middle" class="record-text">r12</text>
  <rect x="164" y="165" width="54" height="26" rx="3" class="seq-record"/>
  <text x="191" y="182" text-anchor="middle" class="record-text">r34</text>
  <rect x="268" y="165" width="54" height="26" rx="3" class="seq-record"/>
  <text x="295" y="182" text-anchor="middle" class="record-text">r56</text>
  <rect x="372" y="165" width="54" height="26" rx="3" class="seq-record"/>
  <text x="399" y="182" text-anchor="middle" class="record-text">r78</text>

  <path d="M 87  191 Q 87  220 139 250" class="arrow-seq"/>
  <path d="M 191 191 Q 191 220 139 250" class="arrow-seq"/>
  <path d="M 295 191 Q 295 220 347 250" class="arrow-seq"/>
  <path d="M 399 191 Q 399 220 347 250" class="arrow-seq"/>

  <text x="40" y="245" class="round-label">Round 2</text>
  <rect x="106" y="250" width="66" height="26" rx="3" class="seq-record"/>
  <text x="139" y="267" text-anchor="middle" class="record-text">r1234</text>
  <rect x="314" y="250" width="66" height="26" rx="3" class="seq-record"/>
  <text x="347" y="267" text-anchor="middle" class="record-text">r5678</text>

  <path d="M 139 276 Q 139 320 243 350" class="arrow-seq"/>
  <path d="M 347 276 Q 347 320 243 350" class="arrow-seq"/>

  <text x="40" y="345" class="round-label">Round 3</text>
  <rect x="200" y="350" width="86" height="26" rx="3" class="seq-record"/>
  <text x="243" y="367" text-anchor="middle" class="record-text">r12345678</text>

  <rect x="155" y="430" width="180" height="46" rx="23" class="seq-badge"/>
  <text x="245" y="459" text-anchor="middle" class="badge-text">7 transactions</text>
  </g>

  <!-- =================== RIGHT: BATCH =================== -->
  <g transform="translate(0,-25)">
  <text x="490" y="80" class="round-label">Inputs</text>
  <g>
    <rect x="490" y="90" width="42" height="26" rx="3" class="batch-record"/>
    <text x="511" y="107" text-anchor="middle" class="record-text">r1</text>
    <rect x="542" y="90" width="42" height="26" rx="3" class="batch-record"/>
    <text x="563" y="107" text-anchor="middle" class="record-text">r2</text>
    <rect x="594" y="90" width="42" height="26" rx="3" class="batch-record"/>
    <text x="615" y="107" text-anchor="middle" class="record-text">r3</text>
    <rect x="646" y="90" width="42" height="26" rx="3" class="batch-record"/>
    <text x="667" y="107" text-anchor="middle" class="record-text">r4</text>
    <rect x="698" y="90" width="42" height="26" rx="3" class="batch-record"/>
    <text x="719" y="107" text-anchor="middle" class="record-text">r5</text>
    <rect x="750" y="90" width="42" height="26" rx="3" class="batch-record"/>
    <text x="771" y="107" text-anchor="middle" class="record-text">r6</text>
    <rect x="802" y="90" width="42" height="26" rx="3" class="batch-record"/>
    <text x="823" y="107" text-anchor="middle" class="record-text">r7</text>
    <rect x="854" y="90" width="42" height="26" rx="3" class="batch-record"/>
    <text x="875" y="107" text-anchor="middle" class="record-text">r8</text>
  </g>

  <path d="M 511 116 Q 511 170 693 220" class="arrow-batch"/>
  <path d="M 563 116 Q 563 170 693 220" class="arrow-batch"/>
  <path d="M 615 116 Q 615 170 693 220" class="arrow-batch"/>
  <path d="M 667 116 Q 667 170 693 220" class="arrow-batch"/>
  <path d="M 719 116 Q 719 170 693 220" class="arrow-batch"/>
  <path d="M 771 116 Q 771 170 693 220" class="arrow-batch"/>
  <path d="M 823 116 Q 823 170 693 220" class="arrow-batch"/>
  <path d="M 875 116 Q 875 170 693 220" class="arrow-batch"/>

  <rect x="540" y="220" width="306" height="50" rx="6" class="batch-record"/>
  <text x="693" y="251" text-anchor="middle" class="joinbox-text">join_8</text>

  <line x1="693" y1="270" x2="693" y2="345" class="arrow-batch" stroke-width="1.6"/>
  <polygon points="693,355 685,343 701,343" class="arrowhead"/>

  <rect x="640" y="357" width="106" height="30" rx="4" class="batch-record"/>
  <text x="693" y="377" text-anchor="middle" class="record-text">r12345678</text>

  <rect x="603" y="430" width="180" height="46" rx="23" class="batch-badge"/>
  <text x="693" y="459" text-anchor="middle" class="badge-text">1 transaction</text>
  </g>
</svg>
