<svg xmlns="http://www.w3.org/2000/svg" viewBox="0 30 436 440" font-family="'Aleo Sans', Aleo, Inter, ui-sans-serif, system-ui, -apple-system, sans-serif">
  <style>
    .round-label { fill: #F5F5F5; font-size: 12px; font-weight: 600; text-transform: uppercase; letter-spacing: 0.5px; opacity: 0.7; }
    .record-text { fill: #121212; font-size: 11px; font-weight: 500; }
    .joinbox-text { fill: #121212; font-size: 16px; font-weight: 600; }
    .badge-text { fill: #121212; font-size: 14px; font-weight: 600; }
    .batch-record { fill: #FFA978; }
    .batch-badge { fill: #FFA978; stroke: #121212; stroke-width: 1.5; }
    .arrow-batch { stroke: #E3E3E3; fill: none; stroke-width: 1.2; opacity: 0.6; }
    .arrowhead { fill: #E3E3E3; opacity: 0.85; }
  </style>

  <rect x="0" y="30" width="436" height="440" fill="#121212"/>

  <g transform="translate(-475,-25)">
  <text x="490" y="80" class="round-label">Inputs</text>
  <g>
    <rect x="490" y="90" width="42" height="26" rx="3" class="batch-record"/>
    <text x="511" y="107" text-anchor="middle" class="record-text">r1</text>
    <rect x="542" y="90" width="42" height="26" rx="3" class="batch-record"/>
    <text x="563" y="107" text-anchor="middle" class="record-text">r2</text>
    <rect x="594" y="90" width="42" height="26" rx="3" class="batch-record"/>
    <text x="615" y="107" text-anchor="middle" class="record-text">r3</text>
    <rect x="646" y="90" width="42" height="26" rx="3" class="batch-record"/>
    <text x="667" y="107" text-anchor="middle" class="record-text">r4</text>
    <rect x="698" y="90" width="42" height="26" rx="3" class="batch-record"/>
    <text x="719" y="107" text-anchor="middle" class="record-text">r5</text>
    <rect x="750" y="90" width="42" height="26" rx="3" class="batch-record"/>
    <text x="771" y="107" text-anchor="middle" class="record-text">r6</text>
    <rect x="802" y="90" width="42" height="26" rx="3" class="batch-record"/>
    <text x="823" y="107" text-anchor="middle" class="record-text">r7</text>
    <rect x="854" y="90" width="42" height="26" rx="3" class="batch-record"/>
    <text x="875" y="107" text-anchor="middle" class="record-text">r8</text>
  </g>

  <path d="M 511 116 Q 511 170 693 220" class="arrow-batch"/>
  <path d="M 563 116 Q 563 170 693 220" class="arrow-batch"/>
  <path d="M 615 116 Q 615 170 693 220" class="arrow-batch"/>
  <path d="M 667 116 Q 667 170 693 220" class="arrow-batch"/>
  <path d="M 719 116 Q 719 170 693 220" class="arrow-batch"/>
  <path d="M 771 116 Q 771 170 693 220" class="arrow-batch"/>
  <path d="M 823 116 Q 823 170 693 220" class="arrow-batch"/>
  <path d="M 875 116 Q 875 170 693 220" class="arrow-batch"/>

  <rect x="540" y="220" width="306" height="50" rx="6" class="batch-record"/>
  <text x="693" y="251" text-anchor="middle" class="joinbox-text">join_8</text>

  <line x1="693" y1="270" x2="693" y2="345" class="arrow-batch" stroke-width="1.6"/>
  <polygon points="693,355 685,343 701,343" class="arrowhead"/>

  <rect x="640" y="357" width="106" height="30" rx="4" class="batch-record"/>
  <text x="693" y="377" text-anchor="middle" class="record-text">r12345678</text>

  <rect x="603" y="430" width="180" height="46" rx="23" class="batch-badge"/>
  <text x="693" y="459" text-anchor="middle" class="badge-text">1 transaction</text>
  </g>
</svg>
